<svg width="42" height="42" viewBox="0 0 42 42" fill="none" xmlns="http://www.w3.org/2000/svg">
<path d="M36.2103 4.98438H6.7512C6.04274 4.98438 5.47037 5.55675 5.47037 6.26521V35.7243C5.47037 36.4328 6.04274 37.0052 6.7512 37.0052H36.2103C36.9188 37.0052 37.4911 36.4328 37.4911 35.7243V6.26521C37.4911 5.55675 36.9188 4.98438 36.2103 4.98438ZM32.5119 14.3304H29.9543C27.949 14.3304 27.5607 15.2831 27.5607 16.684V19.77H32.3478L31.7234 24.6011H27.5607V37.0052H22.5695V24.6051H18.3948V19.77H22.5695V16.2077C22.5695 12.073 25.0951 9.81951 28.7855 9.81951C30.5546 9.81951 32.0716 9.9516 32.5159 10.0116V14.3304H32.5119Z" fill="white"/>
</svg>
