<svg width="41" height="42" viewBox="0 0 41 42" fill="none" xmlns="http://www.w3.org/2000/svg">
<path d="M37.1449 10.6809C35.9201 11.2092 34.5873 11.5895 33.2144 11.7376C34.6398 10.8908 35.7072 9.55297 36.2163 7.97514C34.8788 8.77082 33.4135 9.32876 31.8855 9.62421C31.2469 8.94148 30.4745 8.39758 29.6165 8.02641C28.7584 7.65524 27.8332 7.46475 26.8983 7.46681C23.1158 7.46681 20.0739 10.5328 20.0739 14.2952C20.0739 14.8236 20.1379 15.3519 20.242 15.8603C14.5783 15.5641 9.52702 12.8583 6.16884 8.71562C5.55694 9.76076 5.23629 10.9508 5.24023 12.1619C5.24023 14.5314 6.44502 16.6208 8.28221 17.8496C7.19952 17.8069 6.14219 17.5093 5.19621 16.981V17.065C5.19621 20.3832 7.54173 23.133 10.6678 23.7654C10.0808 23.9179 9.47701 23.9958 8.87059 23.9975C8.4263 23.9975 8.00603 23.9535 7.58175 23.8935C8.44631 26.5992 10.9639 28.5645 13.9619 28.6285C11.6164 30.4657 8.67846 31.5464 5.48839 31.5464C4.91602 31.5464 4.38768 31.5264 3.83932 31.4624C6.86529 33.4036 10.4556 34.5244 14.3221 34.5244C26.8743 34.5244 33.7427 24.1256 33.7427 15.0998C33.7427 14.8036 33.7427 14.5074 33.7227 14.2112C35.0516 13.2386 36.2163 12.0338 37.1449 10.6809Z" fill="white"/>
</svg>
