<svg width="48" height="52" viewBox="0 0 48 52" fill="none" xmlns="http://www.w3.org/2000/svg">
<g clip-path="url(#clip0_62_2788)">
<path d="M44.2025 41.7312C43.8482 44.3817 42.076 46.6752 39.5949 47.6945C38.3795 48.2036 37.0631 48.3569 35.7464 48.2036C34.4807 48.0509 33.2146 47.6431 31.8983 46.8794C30.0752 45.8591 28.2523 44.2799 26.1257 41.9354C29.4678 37.8073 31.4927 34.0359 32.2526 30.6729C32.6071 29.0928 32.6576 27.6657 32.506 26.3405C32.3036 25.0666 31.8478 23.894 31.1385 22.8749C29.5688 20.5817 26.9361 19.2565 23.9991 19.2565C21.0622 19.2565 18.4293 20.6327 16.8595 22.8749C16.1503 23.8941 15.6952 25.0666 15.4923 26.3405C15.29 27.6657 15.3405 29.1436 15.7457 30.6731C16.505 34.0357 18.5809 37.8583 21.8726 41.9856C19.7965 44.3307 17.9229 45.9104 16.0998 46.9299C14.7835 47.6945 13.5174 48.1023 12.2517 48.2546C10.9469 48.4013 9.62623 48.2266 8.4034 47.7455C5.92213 46.7262 4.15027 44.432 3.79557 41.782C3.64392 40.5083 3.74508 39.2344 4.25143 37.8073C4.40308 37.2973 4.65662 36.7886 4.90943 36.1766C5.26413 35.3616 5.66932 34.4946 6.07396 33.6279L6.125 33.5267C9.61843 25.9327 13.3658 18.1864 17.2647 10.6441L17.4166 10.3377C17.8218 9.57404 18.2264 8.75896 18.632 7.99415C19.0368 7.17852 19.4925 6.41389 20.0493 5.75089C21.1127 4.52763 22.5306 3.86518 24.1003 3.86518C25.67 3.86518 27.0877 4.52763 28.1511 5.75107C28.7081 6.41389 29.1638 7.17852 29.569 7.99433C29.9742 8.75896 30.3788 9.57404 30.784 10.3377L30.9364 10.6441C34.7844 18.2372 38.5317 25.9835 42.0255 33.5775V33.6279C42.4307 34.4436 42.7848 35.3616 43.19 36.1766C43.4434 36.7886 43.6964 37.2972 43.848 37.8073C44.2532 39.1322 44.405 40.4069 44.2027 41.7312H44.2025ZM23.9991 39.3357C21.2651 35.8706 19.4925 32.6087 18.885 29.8574C18.6321 28.685 18.5809 27.6657 18.7333 26.7483C18.8343 25.9327 19.1385 25.2188 19.543 24.6068C20.5052 23.2321 22.1254 22.3641 23.9991 22.3641C25.8727 22.3641 27.5436 23.1803 28.455 24.6068C28.8598 25.2188 29.1638 25.9327 29.265 26.7483C29.4168 27.6657 29.3661 28.7358 29.1131 29.8574C28.5056 32.5582 26.7332 35.8198 23.9991 39.3357ZM46.8356 36.6859C46.5826 36.0743 46.3293 35.412 46.0763 34.8514C45.6711 33.9345 45.2659 33.0675 44.9114 32.2519L44.8607 32.2014C41.3673 24.5564 37.62 16.8101 33.6703 9.16678L33.5187 8.86004C33.1135 8.09559 32.7083 7.27996 32.3036 6.4647C31.7969 5.54689 31.2904 4.57955 30.4805 3.66155C28.8596 1.62303 26.5309 0.501953 24.0494 0.501953C21.5177 0.501953 19.2393 1.62303 17.568 3.5601C16.8089 4.47718 16.2519 5.44544 15.7455 6.36344C15.3403 7.17852 14.9351 7.99415 14.5301 8.75896L14.3783 9.06385C10.4797 16.7083 6.68184 24.4551 3.18787 32.0996L3.13738 32.2014C2.78268 33.0165 2.37749 33.8826 1.9723 34.8006C1.70141 35.4046 1.44825 36.0165 1.21314 36.6355C0.554586 38.5206 0.352266 40.3047 0.605258 42.139C1.16265 45.9614 3.69441 49.1726 7.1882 50.5991C8.50438 51.1601 9.8716 51.4147 11.2897 51.4147C11.6947 51.4147 12.201 51.3637 12.6062 51.3124C14.2769 51.1082 15.9985 50.5487 17.6692 49.5798C19.7456 48.4078 21.7206 46.7262 23.9483 44.2799C26.176 46.7262 28.2016 48.4079 30.227 49.5798C31.8983 50.5487 33.6196 51.1082 35.2905 51.3124C35.6957 51.3637 36.2021 51.4147 36.6071 51.4147C38.025 51.4147 39.4425 51.1601 40.7086 50.5991C44.253 49.1726 46.7341 45.9106 47.2911 42.139C47.6963 40.3549 47.4934 38.5722 46.8354 36.6857L46.8356 36.6859Z" fill="#E0565B"/>
</g>
<defs>
<clipPath id="clip0_62_2788">
<rect width="47" height="51" fill="white" transform="translate(0.5 0.501953)"/>
</clipPath>
</defs>
</svg>
