<svg width="57" height="46" viewBox="0 0 57 46" fill="none" xmlns="http://www.w3.org/2000/svg">
<g clip-path="url(#clip0_62_2784)">
<path d="M28.5656 0.00195312C13.5506 0.00195312 1.78713 18.862 0.674133 34.7913C5.38601 42.8647 16.7485 45.8994 28.5661 45.8994C40.3827 45.8994 51.7459 42.8647 56.4554 34.7911C55.3422 18.862 43.5802 0.00195312 28.5658 0.00195312" fill="#B6DEFF"/>
<path d="M52.5319 30.9971C52.5319 30.9971 49.2157 23.9187 45.845 19.789C42.4718 15.6577 38.3526 11.1592 35.917 11.1592C33.4828 11.1592 26.6779 23.054 23.5561 23.054C20.4337 23.054 18.811 17.6618 14.9721 17.6618C11.1318 17.6618 5.03038 30.6647 5.03038 30.6647L4.61694 32.869C4.61694 32.869 6.73663 42.147 28.9122 42.147C51.0886 42.147 52.8609 33.0213 52.8609 33.0213L52.5322 30.9968" fill="#66CC66"/>
<path d="M23.9037 28.1299C20.4597 28.1299 18.6942 24.7751 17.7369 22.7043C16.8762 20.8388 16.7272 17.8935 14.2849 17.811C14.5248 17.717 14.7558 17.6615 14.9724 17.6615C18.8112 17.6615 20.4339 23.0537 23.5564 23.0537C26.6781 23.0537 33.483 11.1587 35.9173 11.1587C36.376 11.1587 36.8927 11.3185 37.4533 11.6027C37.0386 11.5487 36.5068 11.5863 36.0971 11.9921C35.3102 12.7691 28.1674 28.1299 23.9037 28.1299Z" fill="#17AD49"/>
</g>
<defs>
<clipPath id="clip0_62_2784">
<rect width="56" height="46" fill="white" transform="translate(0.5 0.00195312)"/>
</clipPath>
</defs>
</svg>
