<svg width="61" height="61" viewBox="0 0 61 61" fill="none" xmlns="http://www.w3.org/2000/svg">
<g clip-path="url(#clip0_62_2764)">
<path d="M13.64 0.228516H47.36C54.6172 0.228516 60.5 6.11133 60.5 13.3685V47.0885C60.5 54.3457 54.6172 60.2285 47.36 60.2285H13.64C6.38281 60.2285 0.5 54.3457 0.5 47.0885V13.3685C0.5 6.11133 6.38281 0.228516 13.64 0.228516Z" fill="url(#paint0_linear_62_2764)"/>
<path d="M19.7286 43.7775L19.7342 43.7794L17.6827 47.3325C16.9339 48.6295 15.2755 49.0739 13.9784 48.3251C12.6816 47.5762 12.237 45.9178 12.9859 44.6208L14.4971 42.0033L14.6422 41.752C14.9012 41.3798 15.5403 40.7372 16.8188 40.8581C16.8188 40.8581 19.8275 41.1846 20.0452 42.7484C20.0452 42.7484 20.0748 43.2628 19.7286 43.7775ZM48.8246 34.7025H42.4276C41.9919 34.6732 41.8018 34.5176 41.7268 34.4271L41.7221 34.4189L34.8744 22.5581L34.8655 22.564L34.4549 21.9752C33.7817 20.9459 32.713 23.5784 32.713 23.5784C31.4368 26.5118 32.8942 29.8467 33.402 30.8548L42.9135 47.329C43.662 48.6258 45.3205 49.0704 46.6177 48.3213C47.9145 47.5725 48.3592 45.9141 47.6101 44.617L45.2319 40.4977C45.1857 40.3978 45.1056 40.1269 45.5933 40.1257H48.8246C50.3223 40.1257 51.5363 38.9116 51.5363 37.414C51.5363 35.9163 50.3223 34.7023 48.8246 34.7023V34.7025ZM36.3995 38.3887C36.3995 38.3887 36.7409 40.1257 35.4198 40.1257H11.7716C10.2739 40.1257 9.05984 38.9116 9.05984 37.414C9.05984 35.9163 10.2739 34.7023 11.7716 34.7023H17.8513C18.8328 34.6455 19.0653 34.0788 19.0653 34.0788L19.0709 34.0816L27.0069 20.336L27.0045 20.3355C27.1491 20.07 27.0287 19.819 27.0078 19.7794L24.3868 15.2398C23.638 13.943 24.0824 12.2843 25.3794 11.5357C26.6764 10.7869 28.3349 11.231 29.0837 12.528L30.2992 14.6334L31.5125 12.5318C32.2613 11.235 33.9198 10.7904 35.2168 11.5394C36.5138 12.2883 36.9582 13.9465 36.2094 15.2435L25.1661 34.3709C25.1178 34.4873 25.1031 34.6702 25.4623 34.7023H32.0633L32.0647 34.7667C32.0647 34.7667 35.8799 34.826 36.3995 38.3887Z" fill="white"/>
</g>
<defs>
<linearGradient id="paint0_linear_62_2764" x1="30.5" y1="0.228516" x2="30.5" y2="60.2285" gradientUnits="userSpaceOnUse">
<stop stop-color="#17C9FB"/>
<stop offset="1" stop-color="#1A74E8"/>
</linearGradient>
<clipPath id="clip0_62_2764">
<rect width="60" height="60" fill="white" transform="translate(0.5 0.228516)"/>
</clipPath>
</defs>
</svg>
