<svg width="61" height="72" viewBox="0 0 61 72" fill="none" xmlns="http://www.w3.org/2000/svg">
<g clip-path="url(#clip0_62_2777)">
<path d="M18.8724 1.15634C18.529 1.15856 18.1915 1.24627 17.8904 1.41158C16.9018 1.95955 16.5392 3.22963 17.087 4.21752L19.3189 8.24783C13.9414 11.5748 10.3782 17.2579 10.3782 23.7442V24.9494C9.34531 23.7611 7.82727 23.0109 6.13109 23.0109C3.02328 23.0109 0.5 25.5342 0.5 28.6417V45.9876C0.5 49.0949 3.02352 51.6185 6.13109 51.6185C7.82727 51.6185 9.34531 50.868 10.378 49.6797V52.1095C10.378 55.3853 13.0585 58.0657 16.3344 58.0657H17.8456V65.782C17.8456 68.8898 20.3691 71.4131 23.4767 71.4131C26.5843 71.4131 29.1076 68.8895 29.1076 65.782V58.0657H31.7223V65.782C31.7223 68.8898 34.2458 71.4131 37.3534 71.4131C40.4609 71.4131 42.9842 68.8895 42.9842 65.782V58.0657H44.4957C47.7713 58.0657 50.4519 55.3853 50.4519 52.1095V49.6797C51.4845 50.868 53.0028 51.6185 54.699 51.6185C57.8066 51.6185 60.3298 49.0949 60.3298 45.9876V28.6417C60.3298 25.5342 57.8066 23.0109 54.699 23.0109C53.0028 23.0109 51.4845 23.7611 50.4519 24.9494V23.9481V23.8907C50.4523 23.8298 50.4519 23.781 50.4519 23.7442C50.4519 17.2591 46.8805 11.5816 41.5048 8.25439L43.7431 4.21752C44.2906 3.22963 43.9283 1.95955 42.9397 1.41158C42.6386 1.24627 42.3011 1.15856 41.9577 1.15634C41.2276 1.14931 40.5111 1.53416 40.1338 2.21502L37.7933 6.44314C35.5048 5.59869 33.0148 5.1358 30.4152 5.1358C27.8178 5.1358 25.3231 5.59377 23.0366 6.43658L20.6963 2.21502C20.3188 1.53416 19.6025 1.14978 18.8724 1.15634Z" fill="white"/>
<path d="M6.13121 24.4775C3.81231 24.4775 1.96707 26.3228 1.96707 28.6417V45.9875C1.96707 48.3065 3.81231 50.1517 6.13121 50.1517C8.45012 50.1517 10.2956 48.3065 10.2956 45.9875V28.6417C10.2956 26.3228 8.45012 24.4775 6.13121 24.4775ZM54.6993 24.4775C52.3802 24.4775 50.535 26.3228 50.535 28.6417V45.9875C50.535 48.3065 52.3802 50.1517 54.6993 50.1517C57.0182 50.1517 58.8635 48.3065 58.8635 45.9875V28.6417C58.8635 26.3228 57.0182 24.4775 54.6993 24.4775Z" fill="#A4C639"/>
<path d="M23.477 44.272C21.1581 44.272 19.3126 46.1172 19.3126 48.4363V65.782C19.3126 68.1009 21.1581 69.9461 23.477 69.9461C25.7959 69.9461 27.6411 68.1009 27.6411 65.782V48.4363C27.6411 46.1172 25.7959 44.272 23.477 44.272ZM37.3536 44.272C35.0345 44.272 33.1893 46.1172 33.1893 48.4363V65.782C33.1893 68.1009 35.0345 69.9461 37.3536 69.9461C39.6725 69.9461 41.5178 68.1009 41.5178 65.782V48.4363C41.5178 46.1172 39.6725 44.272 37.3536 44.272Z" fill="#A4C639"/>
<path d="M18.885 2.62313C18.7865 2.62432 18.6899 2.65061 18.6045 2.69954C18.3075 2.86407 18.21 3.20532 18.3748 3.50297L21.3084 8.80242C15.6647 11.7391 11.8523 17.3198 11.8448 23.7248H48.9851C48.9773 17.3198 45.1652 11.7389 39.5215 8.80242L42.4549 3.50321C42.6199 3.20555 42.5222 2.86407 42.2252 2.69954C42.1398 2.65058 42.0432 2.62428 41.9447 2.62313C41.7337 2.62079 41.5343 2.72625 41.4218 2.92922L38.4499 8.28586C36.019 7.20774 33.2923 6.60235 30.4148 6.60235C27.5374 6.60235 24.8109 7.2075 22.3798 8.28586L19.4079 2.92922C19.3572 2.83519 19.2816 2.75691 19.1895 2.70292C19.0973 2.64894 18.992 2.62134 18.8852 2.62313H18.885ZM11.8448 25.1916V52.1095C11.8436 52.6994 11.9588 53.2838 12.184 53.829C12.4092 54.3743 12.7398 54.8697 13.157 55.2868C13.5741 55.7039 14.0695 56.0345 14.6148 56.2597C15.16 56.4848 15.7444 56.6 16.3343 56.5987H44.4956C45.0856 56.6 45.6699 56.4848 46.2152 56.2596C46.7605 56.0345 47.2559 55.7038 47.673 55.2867C48.0902 54.8696 48.4208 54.3741 48.646 53.8289C48.8711 53.2836 48.9864 52.6992 48.9851 52.1093V25.1918H11.8448V25.1916Z" fill="#A4C639"/>
<path d="M21.844 13.8276C20.9963 13.8276 20.2943 14.5294 20.2943 15.3771C20.2943 16.2251 20.9963 16.9268 21.844 16.9268C22.692 16.9268 23.3937 16.2251 23.3937 15.3771C23.3937 14.5294 22.692 13.8276 21.844 13.8276ZM38.9857 13.8276C38.1377 13.8276 37.436 14.5294 37.436 15.3771C37.436 16.2251 38.1377 16.9268 38.9857 16.9268C39.8334 16.9268 40.5354 16.2251 40.5354 15.3771C40.5354 14.5294 39.8334 13.8276 38.9857 13.8276Z" fill="white"/>
</g>
<defs>
<clipPath id="clip0_62_2777">
<rect width="60" height="70.5469" fill="white" transform="translate(0.5 0.955078)"/>
</clipPath>
</defs>
</svg>
