<svg width="84" height="34" viewBox="0 0 84 34" fill="none" xmlns="http://www.w3.org/2000/svg">
<g clip-path="url(#clip0_62_2790)">
<path d="M0.5 0.501953V2.75754H16.6558V0.501953H0.5ZM18.9448 0.501953V2.75754H41.9676C41.9676 2.75754 39.6159 0.501953 36.5013 0.501953H18.9448ZM46.4839 0.501953V2.75754H60.4124L59.5856 0.501953H46.4839ZM70.3983 0.501953L69.5716 2.75754H83.3736V0.501953H70.3983ZM0.5 4.88854V7.14413H16.6558V4.88854H0.5ZM18.9448 4.89176V7.14413H44.6391C44.6391 7.14413 44.3391 5.40817 43.8156 4.89176H18.9448ZM46.4839 4.89176V7.14413H61.9395L61.1743 4.89176H46.4839ZM68.7448 4.89176L67.9797 7.14413H83.3736V4.89176H68.7448ZM5.14281 9.27512V11.5336H12.1395V9.27512H5.14281ZM23.5876 9.27512V11.5336H30.5843V9.27512H23.5876ZM37.3896 9.27512V11.5336H44.3862C44.3862 11.5336 44.8304 10.3408 44.8304 9.27496H37.3896V9.27512ZM51.1268 9.27512V11.5336H63.5314L62.7046 9.27496H51.1268V9.27512ZM67.221 9.27512L66.391 11.5338H78.8572V9.27512H67.221ZM5.14281 13.6649V15.9202H12.1395V13.6649H5.14281ZM23.5876 13.6649V15.9202H41.4586C41.4586 15.9202 42.9535 14.7628 43.4298 13.6646H23.5876V13.6649ZM51.1268 13.6649V15.9202H58.1234V14.6646L58.5676 15.9202H71.3839L71.8605 14.6646V15.9202H78.8572V13.6649H65.7231L65.026 15.5755L64.3257 13.6649H51.1268ZM5.14281 18.0512V20.3068H12.1395V18.0512H5.14281ZM23.5876 18.0512V20.3068H43.4298C42.9534 19.2121 41.4586 18.0512 41.4586 18.0512H23.5876ZM51.1268 18.0512V20.3068H58.1234V18.0512H51.1268ZM59.3943 18.0512L60.2405 20.3068H69.8504L70.6545 18.0512H59.3943ZM71.8605 18.0512V20.3068H78.8572V18.0512H71.8605ZM5.14281 22.4378V24.6934H12.1395V22.4378H5.14281ZM23.5876 22.4378V24.6934H30.5843V22.4378H23.5876ZM37.3896 22.4378V24.6934H44.8304C44.8304 23.6288 44.3862 22.4378 44.3862 22.4378H37.3896ZM51.1268 22.4378V24.6934H58.1234V22.4378H51.1268ZM60.983 22.4378L61.8033 24.6934H68.2455L69.0723 22.4378H60.983ZM71.8605 22.4378V24.6934H78.8572V22.4378H71.8605ZM0.626445 26.8245V29.0832H16.7823V26.8244H0.626445V26.8245ZM18.9448 26.8245V29.0832H43.8156C44.3391 28.566 44.6391 26.8244 44.6391 26.8244H18.9448V26.8245ZM46.6104 26.8245V29.0832H58.1234V26.8244H46.6104V26.8245ZM62.5749 26.8245L63.4179 29.0832H66.6957L67.4868 26.8244H62.5749V26.8245ZM71.8605 26.8245V29.0832H83.5V26.8244H71.8605V26.8245ZM0.626445 31.2142V33.4698H16.7823V31.2142H0.626445ZM18.9448 31.2142V33.4664H36.5013C39.6159 33.4664 41.9676 31.214 41.9676 31.214H18.9448V31.2142ZM46.6104 31.2142V33.4698H58.1234V31.2142H46.6104ZM64.1733 31.2142L64.9839 33.4632L65.1233 33.4664L65.9468 31.214H64.1733V31.2142ZM71.8605 31.2142V33.4698H83.5V31.2142H71.8605Z" fill="#1F70C1"/>
</g>
<defs>
<clipPath id="clip0_62_2790">
<rect width="83" height="33" fill="white" transform="translate(0.5 0.501953)"/>
</clipPath>
</defs>
</svg>
