<svg width="46" height="47" viewBox="0 0 46 47" fill="none" xmlns="http://www.w3.org/2000/svg">
<path d="M23 27.3353C27.2282 27.3353 30.6667 23.8968 30.6667 19.6686C30.6667 15.4405 27.2282 12.002 23 12.002C18.7718 12.002 15.3333 15.4405 15.3333 19.6686C15.3333 23.8968 18.7718 27.3353 23 27.3353ZM23 15.8353C25.1141 15.8353 26.8333 17.5545 26.8333 19.6686C26.8333 21.7827 25.1141 23.502 23 23.502C20.8859 23.502 19.1667 21.7827 19.1667 19.6686C19.1667 17.5545 20.8859 15.8353 23 15.8353Z" fill="white"/>
<path d="M21.8884 42.3118C22.2128 42.5435 22.6014 42.668 23.0001 42.668C23.3987 42.668 23.7873 42.5435 24.1117 42.3118C24.6944 41.8997 38.389 32.0116 38.3334 19.6683C38.3334 11.2139 31.4545 4.33496 23.0001 4.33496C14.5457 4.33496 7.66673 11.2139 7.66673 19.6587C7.61115 32.0116 21.3057 41.8997 21.8884 42.3118ZM23.0001 8.16829C29.3423 8.16829 34.5001 13.326 34.5001 19.6779C34.5403 28.184 26.0897 35.822 23.0001 38.327C19.9123 35.82 11.4598 28.1802 11.5001 19.6683C11.5001 13.326 16.6578 8.16829 23.0001 8.16829Z" fill="white"/>
</svg>
